<mxfile host="app.diagrams.net" modified="2021-04-12T10:01:16.410Z" agent="5.0 (Macintosh; Intel Mac OS X 10_14_6) AppleWebKit/537.36 (KHTML, like Gecko) Chrome/89.0.4389.114 Safari/537.36" etag="_nmOgDdXsxxXuEUZXEYY" version="14.5.10" type="github">
  <diagram id="5rGw1Lvob3pLMl0aekX0" name="Page-1">
    <mxGraphModel dx="1773" dy="1792" grid="1" gridSize="10" guides="1" tooltips="1" connect="1" arrows="1" fold="1" page="1" pageScale="1" pageWidth="827" pageHeight="1169" math="0" shadow="0">
      <root>
        <mxCell id="0" />
        <mxCell id="1" parent="0" />
        <mxCell id="ntQ4MbX2gMJmyEMjqJaM-1" value="airline" style="rounded=0;whiteSpace=wrap;html=1;" vertex="1" parent="1">
          <mxGeometry x="340" y="490" width="120" height="60" as="geometry" />
        </mxCell>
        <mxCell id="ntQ4MbX2gMJmyEMjqJaM-2" value="passangers" style="rounded=0;whiteSpace=wrap;html=1;" vertex="1" parent="1">
          <mxGeometry x="770" width="120" height="60" as="geometry" />
        </mxCell>
        <mxCell id="ntQ4MbX2gMJmyEMjqJaM-3" value="planes" style="rounded=0;whiteSpace=wrap;html=1;" vertex="1" parent="1">
          <mxGeometry x="-40" y="110" width="120" height="60" as="geometry" />
        </mxCell>
        <mxCell id="ntQ4MbX2gMJmyEMjqJaM-4" value="flights" style="rounded=0;whiteSpace=wrap;html=1;" vertex="1" parent="1">
          <mxGeometry x="354" y="60" width="120" height="60" as="geometry" />
        </mxCell>
        <mxCell id="ntQ4MbX2gMJmyEMjqJaM-5" value="airports" style="rounded=0;whiteSpace=wrap;html=1;" vertex="1" parent="1">
          <mxGeometry x="-130" y="345" width="120" height="60" as="geometry" />
        </mxCell>
        <mxCell id="ntQ4MbX2gMJmyEMjqJaM-6" value="employees" style="rounded=0;whiteSpace=wrap;html=1;" vertex="1" parent="1">
          <mxGeometry x="680" y="360" width="120" height="60" as="geometry" />
        </mxCell>
        <mxCell id="ntQ4MbX2gMJmyEMjqJaM-7" value="book" style="rhombus;whiteSpace=wrap;html=1;" vertex="1" parent="1">
          <mxGeometry x="540" y="60" width="80" height="50" as="geometry" />
        </mxCell>
        <mxCell id="ntQ4MbX2gMJmyEMjqJaM-8" value="" style="endArrow=none;html=1;entryX=1;entryY=0.5;entryDx=0;entryDy=0;exitX=0.5;exitY=1;exitDx=0;exitDy=0;endFill=0;startArrow=ERmany;startFill=0;" edge="1" parent="1" source="ntQ4MbX2gMJmyEMjqJaM-2" target="ntQ4MbX2gMJmyEMjqJaM-7">
          <mxGeometry width="50" height="50" relative="1" as="geometry">
            <mxPoint x="390" y="350" as="sourcePoint" />
            <mxPoint x="440" y="300" as="targetPoint" />
          </mxGeometry>
        </mxCell>
        <mxCell id="ntQ4MbX2gMJmyEMjqJaM-10" value="" style="endArrow=none;html=1;entryX=0;entryY=0;entryDx=0;entryDy=0;exitX=1;exitY=0.5;exitDx=0;exitDy=0;startArrow=ERmany;startFill=0;" edge="1" parent="1" source="ntQ4MbX2gMJmyEMjqJaM-4" target="ntQ4MbX2gMJmyEMjqJaM-7">
          <mxGeometry width="50" height="50" relative="1" as="geometry">
            <mxPoint x="390" y="350" as="sourcePoint" />
            <mxPoint x="440" y="300" as="targetPoint" />
          </mxGeometry>
        </mxCell>
        <mxCell id="ntQ4MbX2gMJmyEMjqJaM-11" value="fly to" style="rhombus;whiteSpace=wrap;html=1;" vertex="1" parent="1">
          <mxGeometry x="-100" y="240" width="80" height="60" as="geometry" />
        </mxCell>
        <mxCell id="ntQ4MbX2gMJmyEMjqJaM-12" value="" style="endArrow=ERmany;html=1;entryX=0;entryY=1;entryDx=0;entryDy=0;exitX=1;exitY=0;exitDx=0;exitDy=0;startArrow=none;startFill=0;endFill=0;" edge="1" parent="1" source="ntQ4MbX2gMJmyEMjqJaM-11" target="ntQ4MbX2gMJmyEMjqJaM-3">
          <mxGeometry width="50" height="50" relative="1" as="geometry">
            <mxPoint x="390" y="350" as="sourcePoint" />
            <mxPoint x="440" y="300" as="targetPoint" />
          </mxGeometry>
        </mxCell>
        <mxCell id="ntQ4MbX2gMJmyEMjqJaM-13" value="" style="endArrow=none;html=1;entryX=0.5;entryY=1;entryDx=0;entryDy=0;exitX=0.5;exitY=0;exitDx=0;exitDy=0;endFill=0;startArrow=ERmany;startFill=0;" edge="1" parent="1" source="ntQ4MbX2gMJmyEMjqJaM-5" target="ntQ4MbX2gMJmyEMjqJaM-11">
          <mxGeometry width="50" height="50" relative="1" as="geometry">
            <mxPoint x="390" y="350" as="sourcePoint" />
            <mxPoint x="440" y="300" as="targetPoint" />
          </mxGeometry>
        </mxCell>
        <mxCell id="ntQ4MbX2gMJmyEMjqJaM-14" value="employes" style="rhombus;whiteSpace=wrap;html=1;" vertex="1" parent="1">
          <mxGeometry x="550" y="470" width="80" height="60" as="geometry" />
        </mxCell>
        <mxCell id="ntQ4MbX2gMJmyEMjqJaM-15" value="" style="endArrow=none;html=1;exitX=1;exitY=0.5;exitDx=0;exitDy=0;entryX=0;entryY=0.5;entryDx=0;entryDy=0;startArrow=ERone;startFill=0;" edge="1" parent="1" source="ntQ4MbX2gMJmyEMjqJaM-1" target="ntQ4MbX2gMJmyEMjqJaM-14">
          <mxGeometry width="50" height="50" relative="1" as="geometry">
            <mxPoint x="390" y="350" as="sourcePoint" />
            <mxPoint x="440" y="300" as="targetPoint" />
          </mxGeometry>
        </mxCell>
        <mxCell id="ntQ4MbX2gMJmyEMjqJaM-16" value="" style="endArrow=ERmany;html=1;exitX=1;exitY=0;exitDx=0;exitDy=0;entryX=0.5;entryY=1;entryDx=0;entryDy=0;endFill=0;" edge="1" parent="1" source="ntQ4MbX2gMJmyEMjqJaM-14" target="ntQ4MbX2gMJmyEMjqJaM-6">
          <mxGeometry width="50" height="50" relative="1" as="geometry">
            <mxPoint x="390" y="350" as="sourcePoint" />
            <mxPoint x="740" y="430" as="targetPoint" />
          </mxGeometry>
        </mxCell>
        <mxCell id="ntQ4MbX2gMJmyEMjqJaM-17" value="own" style="rhombus;whiteSpace=wrap;html=1;" vertex="1" parent="1">
          <mxGeometry x="274" y="350" width="80" height="50" as="geometry" />
        </mxCell>
        <mxCell id="ntQ4MbX2gMJmyEMjqJaM-18" value="" style="endArrow=none;html=1;exitX=1;exitY=1;exitDx=0;exitDy=0;entryX=0.5;entryY=0;entryDx=0;entryDy=0;startArrow=ERone;startFill=0;" edge="1" parent="1" source="ntQ4MbX2gMJmyEMjqJaM-17" target="ntQ4MbX2gMJmyEMjqJaM-1">
          <mxGeometry width="50" height="50" relative="1" as="geometry">
            <mxPoint x="390" y="350" as="sourcePoint" />
            <mxPoint x="440" y="300" as="targetPoint" />
          </mxGeometry>
        </mxCell>
        <mxCell id="ntQ4MbX2gMJmyEMjqJaM-19" value="" style="endArrow=ERmany;html=1;exitX=0;exitY=0;exitDx=0;exitDy=0;entryX=0.5;entryY=1;entryDx=0;entryDy=0;endFill=0;" edge="1" parent="1" source="ntQ4MbX2gMJmyEMjqJaM-17" target="ntQ4MbX2gMJmyEMjqJaM-3">
          <mxGeometry width="50" height="50" relative="1" as="geometry">
            <mxPoint x="390" y="350" as="sourcePoint" />
            <mxPoint x="440" y="300" as="targetPoint" />
          </mxGeometry>
        </mxCell>
        <mxCell id="ntQ4MbX2gMJmyEMjqJaM-20" value="" style="endArrow=none;html=1;exitX=1.017;exitY=0.4;exitDx=0;exitDy=0;exitPerimeter=0;entryX=0;entryY=0.5;entryDx=0;entryDy=0;startArrow=ERmany;startFill=0;" edge="1" parent="1" source="ntQ4MbX2gMJmyEMjqJaM-3" target="ntQ4MbX2gMJmyEMjqJaM-43">
          <mxGeometry width="50" height="50" relative="1" as="geometry">
            <mxPoint x="390" y="350" as="sourcePoint" />
            <mxPoint x="440" y="300" as="targetPoint" />
          </mxGeometry>
        </mxCell>
        <mxCell id="ntQ4MbX2gMJmyEMjqJaM-21" value="city" style="ellipse;whiteSpace=wrap;html=1;" vertex="1" parent="1">
          <mxGeometry x="30" y="400" width="100" height="60" as="geometry" />
        </mxCell>
        <mxCell id="ntQ4MbX2gMJmyEMjqJaM-22" value="3 digit code" style="ellipse;whiteSpace=wrap;html=1;" vertex="1" parent="1">
          <mxGeometry x="-100" y="440" width="100" height="60" as="geometry" />
        </mxCell>
        <mxCell id="ntQ4MbX2gMJmyEMjqJaM-23" value="" style="endArrow=none;html=1;exitX=1;exitY=0.5;exitDx=0;exitDy=0;entryX=0;entryY=0;entryDx=0;entryDy=0;" edge="1" parent="1" source="ntQ4MbX2gMJmyEMjqJaM-5" target="ntQ4MbX2gMJmyEMjqJaM-21">
          <mxGeometry width="50" height="50" relative="1" as="geometry">
            <mxPoint x="190" y="300" as="sourcePoint" />
            <mxPoint x="240" y="250" as="targetPoint" />
          </mxGeometry>
        </mxCell>
        <mxCell id="ntQ4MbX2gMJmyEMjqJaM-24" value="" style="endArrow=none;html=1;exitX=0.675;exitY=1.017;exitDx=0;exitDy=0;exitPerimeter=0;entryX=0.5;entryY=0;entryDx=0;entryDy=0;" edge="1" parent="1" source="ntQ4MbX2gMJmyEMjqJaM-5" target="ntQ4MbX2gMJmyEMjqJaM-22">
          <mxGeometry width="50" height="50" relative="1" as="geometry">
            <mxPoint x="190" y="300" as="sourcePoint" />
            <mxPoint x="240" y="250" as="targetPoint" />
          </mxGeometry>
        </mxCell>
        <mxCell id="ntQ4MbX2gMJmyEMjqJaM-25" value="flight number" style="ellipse;whiteSpace=wrap;html=1;" vertex="1" parent="1">
          <mxGeometry x="192" y="40" width="96" height="60" as="geometry" />
        </mxCell>
        <mxCell id="ntQ4MbX2gMJmyEMjqJaM-26" value="" style="endArrow=none;html=1;exitX=1;exitY=1;exitDx=0;exitDy=0;entryX=0;entryY=0.25;entryDx=0;entryDy=0;" edge="1" parent="1" source="ntQ4MbX2gMJmyEMjqJaM-25" target="ntQ4MbX2gMJmyEMjqJaM-4">
          <mxGeometry width="50" height="50" relative="1" as="geometry">
            <mxPoint x="190" y="300" as="sourcePoint" />
            <mxPoint x="240" y="250" as="targetPoint" />
          </mxGeometry>
        </mxCell>
        <mxCell id="ntQ4MbX2gMJmyEMjqJaM-27" value="duration" style="ellipse;whiteSpace=wrap;html=1;" vertex="1" parent="1">
          <mxGeometry x="400" y="-160" width="100" height="60" as="geometry" />
        </mxCell>
        <mxCell id="ntQ4MbX2gMJmyEMjqJaM-28" value="take of time" style="ellipse;whiteSpace=wrap;html=1;" vertex="1" parent="1">
          <mxGeometry x="220" y="-30" width="100" height="60" as="geometry" />
        </mxCell>
        <mxCell id="ntQ4MbX2gMJmyEMjqJaM-29" value="time of landing" style="ellipse;whiteSpace=wrap;html=1;" vertex="1" parent="1">
          <mxGeometry x="240" y="-100" width="100" height="60" as="geometry" />
        </mxCell>
        <mxCell id="ntQ4MbX2gMJmyEMjqJaM-31" value="origion airport" style="ellipse;whiteSpace=wrap;html=1;" vertex="1" parent="1">
          <mxGeometry x="474" y="-90" width="100" height="60" as="geometry" />
        </mxCell>
        <mxCell id="ntQ4MbX2gMJmyEMjqJaM-32" value="desitnation airport" style="ellipse;whiteSpace=wrap;html=1;" vertex="1" parent="1">
          <mxGeometry x="510" y="-20" width="100" height="60" as="geometry" />
        </mxCell>
        <mxCell id="ntQ4MbX2gMJmyEMjqJaM-33" value="crew" style="ellipse;whiteSpace=wrap;html=1;" vertex="1" parent="1">
          <mxGeometry x="288" y="-170" width="100" height="60" as="geometry" />
        </mxCell>
        <mxCell id="ntQ4MbX2gMJmyEMjqJaM-34" value="" style="endArrow=none;html=1;exitX=1;exitY=1;exitDx=0;exitDy=0;entryX=0.25;entryY=0;entryDx=0;entryDy=0;" edge="1" parent="1" source="ntQ4MbX2gMJmyEMjqJaM-28" target="ntQ4MbX2gMJmyEMjqJaM-4">
          <mxGeometry width="50" height="50" relative="1" as="geometry">
            <mxPoint x="330" y="160" as="sourcePoint" />
            <mxPoint x="380" y="110" as="targetPoint" />
          </mxGeometry>
        </mxCell>
        <mxCell id="ntQ4MbX2gMJmyEMjqJaM-35" value="" style="endArrow=none;html=1;exitX=1;exitY=1;exitDx=0;exitDy=0;entryX=0.25;entryY=0;entryDx=0;entryDy=0;" edge="1" parent="1" source="ntQ4MbX2gMJmyEMjqJaM-29" target="ntQ4MbX2gMJmyEMjqJaM-4">
          <mxGeometry width="50" height="50" relative="1" as="geometry">
            <mxPoint x="330" y="160" as="sourcePoint" />
            <mxPoint x="380" y="110" as="targetPoint" />
          </mxGeometry>
        </mxCell>
        <mxCell id="ntQ4MbX2gMJmyEMjqJaM-36" value="" style="endArrow=none;html=1;entryX=1;entryY=1;entryDx=0;entryDy=0;exitX=0.5;exitY=0;exitDx=0;exitDy=0;" edge="1" parent="1" source="ntQ4MbX2gMJmyEMjqJaM-4" target="ntQ4MbX2gMJmyEMjqJaM-33">
          <mxGeometry width="50" height="50" relative="1" as="geometry">
            <mxPoint x="330" y="160" as="sourcePoint" />
            <mxPoint x="380" y="110" as="targetPoint" />
          </mxGeometry>
        </mxCell>
        <mxCell id="ntQ4MbX2gMJmyEMjqJaM-37" value="" style="endArrow=none;html=1;entryX=0.5;entryY=1;entryDx=0;entryDy=0;exitX=0.5;exitY=0;exitDx=0;exitDy=0;" edge="1" parent="1" source="ntQ4MbX2gMJmyEMjqJaM-4" target="ntQ4MbX2gMJmyEMjqJaM-27">
          <mxGeometry width="50" height="50" relative="1" as="geometry">
            <mxPoint x="330" y="160" as="sourcePoint" />
            <mxPoint x="380" y="110" as="targetPoint" />
          </mxGeometry>
        </mxCell>
        <mxCell id="ntQ4MbX2gMJmyEMjqJaM-38" value="" style="endArrow=none;html=1;entryX=0;entryY=0.5;entryDx=0;entryDy=0;exitX=0.75;exitY=0;exitDx=0;exitDy=0;" edge="1" parent="1" source="ntQ4MbX2gMJmyEMjqJaM-4" target="ntQ4MbX2gMJmyEMjqJaM-31">
          <mxGeometry width="50" height="50" relative="1" as="geometry">
            <mxPoint x="330" y="160" as="sourcePoint" />
            <mxPoint x="380" y="110" as="targetPoint" />
          </mxGeometry>
        </mxCell>
        <mxCell id="ntQ4MbX2gMJmyEMjqJaM-39" value="" style="endArrow=none;html=1;entryX=0;entryY=0.5;entryDx=0;entryDy=0;exitX=0.75;exitY=0;exitDx=0;exitDy=0;" edge="1" parent="1" source="ntQ4MbX2gMJmyEMjqJaM-4" target="ntQ4MbX2gMJmyEMjqJaM-32">
          <mxGeometry width="50" height="50" relative="1" as="geometry">
            <mxPoint x="330" y="160" as="sourcePoint" />
            <mxPoint x="380" y="110" as="targetPoint" />
          </mxGeometry>
        </mxCell>
        <mxCell id="ntQ4MbX2gMJmyEMjqJaM-40" value="registration number" style="ellipse;whiteSpace=wrap;html=1;" vertex="1" parent="1">
          <mxGeometry x="40" y="-70" width="90" height="60" as="geometry" />
        </mxCell>
        <mxCell id="ntQ4MbX2gMJmyEMjqJaM-41" value="capacity" style="ellipse;whiteSpace=wrap;html=1;" vertex="1" parent="1">
          <mxGeometry x="-70" y="-110" width="100" height="60" as="geometry" />
        </mxCell>
        <mxCell id="ntQ4MbX2gMJmyEMjqJaM-42" value="flight range" style="ellipse;whiteSpace=wrap;html=1;" vertex="1" parent="1">
          <mxGeometry x="-210" width="100" height="60" as="geometry" />
        </mxCell>
        <mxCell id="ntQ4MbX2gMJmyEMjqJaM-43" value="assigned" style="rhombus;whiteSpace=wrap;html=1;" vertex="1" parent="1">
          <mxGeometry x="190" y="110" width="80" height="60" as="geometry" />
        </mxCell>
        <mxCell id="ntQ4MbX2gMJmyEMjqJaM-44" value="" style="endArrow=ERmany;html=1;exitX=1;exitY=0.5;exitDx=0;exitDy=0;entryX=0;entryY=0.5;entryDx=0;entryDy=0;endFill=0;" edge="1" parent="1" source="ntQ4MbX2gMJmyEMjqJaM-43" target="ntQ4MbX2gMJmyEMjqJaM-4">
          <mxGeometry width="50" height="50" relative="1" as="geometry">
            <mxPoint x="220" y="190" as="sourcePoint" />
            <mxPoint x="270" y="140" as="targetPoint" />
          </mxGeometry>
        </mxCell>
        <mxCell id="ntQ4MbX2gMJmyEMjqJaM-45" value="manifacturer" style="ellipse;whiteSpace=wrap;html=1;" vertex="1" parent="1">
          <mxGeometry x="-200" y="100" width="100" height="60" as="geometry" />
        </mxCell>
        <mxCell id="ntQ4MbX2gMJmyEMjqJaM-46" value="model" style="ellipse;whiteSpace=wrap;html=1;" vertex="1" parent="1">
          <mxGeometry x="80" y="20" width="90" height="50" as="geometry" />
        </mxCell>
        <mxCell id="ntQ4MbX2gMJmyEMjqJaM-47" value="date" style="ellipse;whiteSpace=wrap;html=1;" vertex="1" parent="1">
          <mxGeometry x="-180" y="-80" width="100" height="60" as="geometry" />
        </mxCell>
        <mxCell id="ntQ4MbX2gMJmyEMjqJaM-49" value="" style="endArrow=none;html=1;exitX=0;exitY=0.5;exitDx=0;exitDy=0;entryX=1;entryY=0.5;entryDx=0;entryDy=0;" edge="1" parent="1" source="ntQ4MbX2gMJmyEMjqJaM-3" target="ntQ4MbX2gMJmyEMjqJaM-45">
          <mxGeometry width="50" height="50" relative="1" as="geometry">
            <mxPoint x="220" y="190" as="sourcePoint" />
            <mxPoint x="270" y="140" as="targetPoint" />
          </mxGeometry>
        </mxCell>
        <mxCell id="ntQ4MbX2gMJmyEMjqJaM-50" value="" style="endArrow=none;html=1;exitX=0;exitY=0;exitDx=0;exitDy=0;entryX=1;entryY=1;entryDx=0;entryDy=0;" edge="1" parent="1" source="ntQ4MbX2gMJmyEMjqJaM-3" target="ntQ4MbX2gMJmyEMjqJaM-42">
          <mxGeometry width="50" height="50" relative="1" as="geometry">
            <mxPoint x="220" y="190" as="sourcePoint" />
            <mxPoint x="270" y="140" as="targetPoint" />
          </mxGeometry>
        </mxCell>
        <mxCell id="ntQ4MbX2gMJmyEMjqJaM-51" value="" style="endArrow=none;html=1;entryX=0.25;entryY=0;entryDx=0;entryDy=0;exitX=0.5;exitY=1;exitDx=0;exitDy=0;" edge="1" parent="1" source="ntQ4MbX2gMJmyEMjqJaM-47" target="ntQ4MbX2gMJmyEMjqJaM-3">
          <mxGeometry width="50" height="50" relative="1" as="geometry">
            <mxPoint x="230" y="200" as="sourcePoint" />
            <mxPoint x="280" y="150" as="targetPoint" />
          </mxGeometry>
        </mxCell>
        <mxCell id="ntQ4MbX2gMJmyEMjqJaM-52" value="" style="endArrow=none;html=1;exitX=0.25;exitY=0;exitDx=0;exitDy=0;entryX=0.5;entryY=1;entryDx=0;entryDy=0;" edge="1" parent="1" source="ntQ4MbX2gMJmyEMjqJaM-3" target="ntQ4MbX2gMJmyEMjqJaM-41">
          <mxGeometry width="50" height="50" relative="1" as="geometry">
            <mxPoint x="240" y="210" as="sourcePoint" />
            <mxPoint x="290" y="160" as="targetPoint" />
          </mxGeometry>
        </mxCell>
        <mxCell id="ntQ4MbX2gMJmyEMjqJaM-53" value="" style="endArrow=none;html=1;exitX=0.5;exitY=0;exitDx=0;exitDy=0;entryX=0;entryY=1;entryDx=0;entryDy=0;" edge="1" parent="1" source="ntQ4MbX2gMJmyEMjqJaM-3" target="ntQ4MbX2gMJmyEMjqJaM-40">
          <mxGeometry width="50" height="50" relative="1" as="geometry">
            <mxPoint x="250" y="220" as="sourcePoint" />
            <mxPoint x="300" y="170" as="targetPoint" />
          </mxGeometry>
        </mxCell>
        <mxCell id="ntQ4MbX2gMJmyEMjqJaM-54" value="" style="endArrow=none;html=1;entryX=0;entryY=0.5;entryDx=0;entryDy=0;exitX=0.75;exitY=0;exitDx=0;exitDy=0;" edge="1" parent="1" source="ntQ4MbX2gMJmyEMjqJaM-3" target="ntQ4MbX2gMJmyEMjqJaM-46">
          <mxGeometry width="50" height="50" relative="1" as="geometry">
            <mxPoint x="60" y="100" as="sourcePoint" />
            <mxPoint x="310" y="180" as="targetPoint" />
          </mxGeometry>
        </mxCell>
        <mxCell id="ntQ4MbX2gMJmyEMjqJaM-55" value="country" style="ellipse;whiteSpace=wrap;html=1;" vertex="1" parent="1">
          <mxGeometry x="-230" y="390" width="90" height="50" as="geometry" />
        </mxCell>
        <mxCell id="ntQ4MbX2gMJmyEMjqJaM-56" value="" style="endArrow=none;html=1;exitX=0.5;exitY=0;exitDx=0;exitDy=0;entryX=0;entryY=0.5;entryDx=0;entryDy=0;" edge="1" parent="1" source="ntQ4MbX2gMJmyEMjqJaM-55" target="ntQ4MbX2gMJmyEMjqJaM-5">
          <mxGeometry width="50" height="50" relative="1" as="geometry">
            <mxPoint x="220" y="290" as="sourcePoint" />
            <mxPoint x="-80" y="380" as="targetPoint" />
          </mxGeometry>
        </mxCell>
        <mxCell id="ntQ4MbX2gMJmyEMjqJaM-57" value="name" style="ellipse;whiteSpace=wrap;html=1;" vertex="1" parent="1">
          <mxGeometry x="185" y="555" width="90" height="60" as="geometry" />
        </mxCell>
        <mxCell id="ntQ4MbX2gMJmyEMjqJaM-58" value="" style="endArrow=none;html=1;exitX=1;exitY=0;exitDx=0;exitDy=0;entryX=0;entryY=0.5;entryDx=0;entryDy=0;" edge="1" parent="1" source="ntQ4MbX2gMJmyEMjqJaM-57" target="ntQ4MbX2gMJmyEMjqJaM-1">
          <mxGeometry width="50" height="50" relative="1" as="geometry">
            <mxPoint x="480" y="420" as="sourcePoint" />
            <mxPoint x="530" y="370" as="targetPoint" />
          </mxGeometry>
        </mxCell>
        <mxCell id="ntQ4MbX2gMJmyEMjqJaM-59" value="id" style="ellipse;whiteSpace=wrap;html=1;" vertex="1" parent="1">
          <mxGeometry x="340" y="615" width="80" height="40" as="geometry" />
        </mxCell>
        <mxCell id="ntQ4MbX2gMJmyEMjqJaM-60" value="" style="endArrow=none;html=1;exitX=0.5;exitY=0;exitDx=0;exitDy=0;entryX=0.5;entryY=1;entryDx=0;entryDy=0;" edge="1" parent="1" source="ntQ4MbX2gMJmyEMjqJaM-59" target="ntQ4MbX2gMJmyEMjqJaM-1">
          <mxGeometry width="50" height="50" relative="1" as="geometry">
            <mxPoint x="480" y="420" as="sourcePoint" />
            <mxPoint x="530" y="370" as="targetPoint" />
          </mxGeometry>
        </mxCell>
        <mxCell id="ntQ4MbX2gMJmyEMjqJaM-61" value="name" style="ellipse;whiteSpace=wrap;html=1;" vertex="1" parent="1">
          <mxGeometry x="700" y="-170" width="100" height="70" as="geometry" />
        </mxCell>
        <mxCell id="ntQ4MbX2gMJmyEMjqJaM-62" value="passport number" style="ellipse;whiteSpace=wrap;html=1;" vertex="1" parent="1">
          <mxGeometry x="840" y="-180" width="100" height="70" as="geometry" />
        </mxCell>
        <mxCell id="ntQ4MbX2gMJmyEMjqJaM-63" value="address" style="ellipse;whiteSpace=wrap;html=1;" vertex="1" parent="1">
          <mxGeometry x="980" y="-140" width="100" height="70" as="geometry" />
        </mxCell>
        <mxCell id="ntQ4MbX2gMJmyEMjqJaM-64" value="" style="endArrow=none;html=1;entryX=0.5;entryY=1;entryDx=0;entryDy=0;exitX=0.25;exitY=0;exitDx=0;exitDy=0;" edge="1" parent="1" source="ntQ4MbX2gMJmyEMjqJaM-2" target="ntQ4MbX2gMJmyEMjqJaM-61">
          <mxGeometry width="50" height="50" relative="1" as="geometry">
            <mxPoint x="740" y="60" as="sourcePoint" />
            <mxPoint x="790" y="10" as="targetPoint" />
          </mxGeometry>
        </mxCell>
        <mxCell id="ntQ4MbX2gMJmyEMjqJaM-65" value="" style="endArrow=none;html=1;entryX=0.5;entryY=1;entryDx=0;entryDy=0;exitX=0.5;exitY=0;exitDx=0;exitDy=0;" edge="1" parent="1" source="ntQ4MbX2gMJmyEMjqJaM-2" target="ntQ4MbX2gMJmyEMjqJaM-62">
          <mxGeometry width="50" height="50" relative="1" as="geometry">
            <mxPoint x="740" y="60" as="sourcePoint" />
            <mxPoint x="790" y="10" as="targetPoint" />
          </mxGeometry>
        </mxCell>
        <mxCell id="ntQ4MbX2gMJmyEMjqJaM-66" value="" style="endArrow=none;html=1;entryX=0;entryY=0.5;entryDx=0;entryDy=0;exitX=0.75;exitY=0;exitDx=0;exitDy=0;" edge="1" parent="1" source="ntQ4MbX2gMJmyEMjqJaM-2" target="ntQ4MbX2gMJmyEMjqJaM-63">
          <mxGeometry width="50" height="50" relative="1" as="geometry">
            <mxPoint x="740" y="60" as="sourcePoint" />
            <mxPoint x="790" y="10" as="targetPoint" />
          </mxGeometry>
        </mxCell>
        <mxCell id="ntQ4MbX2gMJmyEMjqJaM-67" value="ticket number" style="ellipse;whiteSpace=wrap;html=1;" vertex="1" parent="1">
          <mxGeometry x="610" y="-90" width="100" height="70" as="geometry" />
        </mxCell>
        <mxCell id="ntQ4MbX2gMJmyEMjqJaM-68" value="" style="endArrow=none;html=1;exitX=1;exitY=1;exitDx=0;exitDy=0;entryX=0;entryY=0.5;entryDx=0;entryDy=0;" edge="1" parent="1" source="ntQ4MbX2gMJmyEMjqJaM-67" target="ntQ4MbX2gMJmyEMjqJaM-2">
          <mxGeometry width="50" height="50" relative="1" as="geometry">
            <mxPoint x="740" y="60" as="sourcePoint" />
            <mxPoint x="790" y="10" as="targetPoint" />
          </mxGeometry>
        </mxCell>
        <mxCell id="ntQ4MbX2gMJmyEMjqJaM-69" value="e-mail" style="ellipse;whiteSpace=wrap;html=1;" vertex="1" parent="1">
          <mxGeometry x="1050" y="-70" width="100" height="70" as="geometry" />
        </mxCell>
        <mxCell id="ntQ4MbX2gMJmyEMjqJaM-70" value="" style="endArrow=none;html=1;entryX=0;entryY=0.5;entryDx=0;entryDy=0;exitX=1;exitY=0.5;exitDx=0;exitDy=0;" edge="1" parent="1" source="ntQ4MbX2gMJmyEMjqJaM-2" target="ntQ4MbX2gMJmyEMjqJaM-69">
          <mxGeometry width="50" height="50" relative="1" as="geometry">
            <mxPoint x="740" y="60" as="sourcePoint" />
            <mxPoint x="790" y="10" as="targetPoint" />
          </mxGeometry>
        </mxCell>
        <mxCell id="ntQ4MbX2gMJmyEMjqJaM-71" value="member id&lt;br&gt;(reward program)" style="ellipse;whiteSpace=wrap;html=1;" vertex="1" parent="1">
          <mxGeometry x="970" y="50" width="120" height="80" as="geometry" />
        </mxCell>
        <mxCell id="ntQ4MbX2gMJmyEMjqJaM-72" value="" style="endArrow=none;html=1;entryX=0;entryY=0.5;entryDx=0;entryDy=0;exitX=1;exitY=1;exitDx=0;exitDy=0;" edge="1" parent="1" source="ntQ4MbX2gMJmyEMjqJaM-2" target="ntQ4MbX2gMJmyEMjqJaM-71">
          <mxGeometry width="50" height="50" relative="1" as="geometry">
            <mxPoint x="740" y="60" as="sourcePoint" />
            <mxPoint x="790" y="10" as="targetPoint" />
          </mxGeometry>
        </mxCell>
        <mxCell id="ntQ4MbX2gMJmyEMjqJaM-73" value="employer id" style="ellipse;whiteSpace=wrap;html=1;" vertex="1" parent="1">
          <mxGeometry x="620" y="230" width="100" height="70" as="geometry" />
        </mxCell>
        <mxCell id="ntQ4MbX2gMJmyEMjqJaM-74" value="name" style="ellipse;whiteSpace=wrap;html=1;" vertex="1" parent="1">
          <mxGeometry x="870" y="280" width="100" height="60" as="geometry" />
        </mxCell>
        <mxCell id="ntQ4MbX2gMJmyEMjqJaM-75" value="position" style="ellipse;whiteSpace=wrap;html=1;" vertex="1" parent="1">
          <mxGeometry x="760" y="210" width="100" height="70" as="geometry" />
        </mxCell>
        <mxCell id="ntQ4MbX2gMJmyEMjqJaM-76" value="" style="endArrow=none;html=1;entryX=0.5;entryY=1;entryDx=0;entryDy=0;exitX=0.25;exitY=0;exitDx=0;exitDy=0;" edge="1" parent="1" source="ntQ4MbX2gMJmyEMjqJaM-6" target="ntQ4MbX2gMJmyEMjqJaM-73">
          <mxGeometry width="50" height="50" relative="1" as="geometry">
            <mxPoint x="740" y="390" as="sourcePoint" />
            <mxPoint x="790" y="340" as="targetPoint" />
          </mxGeometry>
        </mxCell>
        <mxCell id="ntQ4MbX2gMJmyEMjqJaM-77" value="" style="endArrow=none;html=1;entryX=0;entryY=1;entryDx=0;entryDy=0;exitX=0.5;exitY=0;exitDx=0;exitDy=0;" edge="1" parent="1" source="ntQ4MbX2gMJmyEMjqJaM-6" target="ntQ4MbX2gMJmyEMjqJaM-75">
          <mxGeometry width="50" height="50" relative="1" as="geometry">
            <mxPoint x="740" y="390" as="sourcePoint" />
            <mxPoint x="790" y="340" as="targetPoint" />
          </mxGeometry>
        </mxCell>
        <mxCell id="ntQ4MbX2gMJmyEMjqJaM-78" value="" style="endArrow=none;html=1;entryX=0;entryY=0.5;entryDx=0;entryDy=0;exitX=1;exitY=0;exitDx=0;exitDy=0;" edge="1" parent="1" source="ntQ4MbX2gMJmyEMjqJaM-6" target="ntQ4MbX2gMJmyEMjqJaM-74">
          <mxGeometry width="50" height="50" relative="1" as="geometry">
            <mxPoint x="740" y="390" as="sourcePoint" />
            <mxPoint x="790" y="340" as="targetPoint" />
          </mxGeometry>
        </mxCell>
      </root>
    </mxGraphModel>
  </diagram>
</mxfile>
